<mxfile host="Electron" agent="Mozilla/5.0 (X11; Linux x86_64) AppleWebKit/537.36 (KHTML, like Gecko) draw.io/26.1.1 Chrome/132.0.6834.210 Electron/34.5.0 Safari/537.36" version="26.1.1">
  <diagram name="Página-1" id="MKk55al17pgkbCEG0Nmv">
    <mxGraphModel dx="2603" dy="879" grid="1" gridSize="10" guides="1" tooltips="1" connect="1" arrows="1" fold="1" page="1" pageScale="1" pageWidth="1169" pageHeight="827" math="0" shadow="0">
      <root>
        <mxCell id="0" />
        <mxCell id="1" parent="0" />
        <mxCell id="M9C141JOA7lJcj1hr1hh-5" value="Pool" style="swimlane;childLayout=stackLayout;resizeParent=1;resizeParentMax=0;horizontal=0;startSize=20;horizontalStack=0;html=1;" parent="1" vertex="1">
          <mxGeometry x="-10" y="150" width="1250" height="480" as="geometry" />
        </mxCell>
        <mxCell id="M9C141JOA7lJcj1hr1hh-6" value="Admin" style="swimlane;startSize=20;horizontal=0;html=1;fillColor=#fff2cc;strokeColor=#d6b656;" parent="M9C141JOA7lJcj1hr1hh-5" vertex="1">
          <mxGeometry x="20" width="1230" height="120" as="geometry" />
        </mxCell>
        <mxCell id="8noJ80j_U4iAbVky4mDm-10" value="" style="shape=step;perimeter=stepPerimeter;whiteSpace=wrap;html=1;fixedSize=1;fillColor=#fff2cc;strokeColor=#d6b656;" parent="M9C141JOA7lJcj1hr1hh-6" vertex="1">
          <mxGeometry x="20" width="120" height="120" as="geometry" />
        </mxCell>
        <mxCell id="8noJ80j_U4iAbVky4mDm-6" value="" style="shape=step;perimeter=stepPerimeter;whiteSpace=wrap;html=1;fixedSize=1;fillColor=#fff2cc;strokeColor=#d6b656;" parent="M9C141JOA7lJcj1hr1hh-6" vertex="1">
          <mxGeometry x="670" width="120" height="120" as="geometry" />
        </mxCell>
        <mxCell id="M9C141JOA7lJcj1hr1hh-15" value="" style="shape=step;perimeter=stepPerimeter;whiteSpace=wrap;html=1;fixedSize=1;fillColor=#fff2cc;strokeColor=#d6b656;" parent="M9C141JOA7lJcj1hr1hh-6" vertex="1">
          <mxGeometry x="130" width="120" height="120" as="geometry" />
        </mxCell>
        <mxCell id="M9C141JOA7lJcj1hr1hh-19" value="" style="shape=step;perimeter=stepPerimeter;whiteSpace=wrap;html=1;fixedSize=1;fillColor=#fff2cc;strokeColor=#d6b656;" parent="M9C141JOA7lJcj1hr1hh-6" vertex="1">
          <mxGeometry x="345" width="120" height="120" as="geometry" />
        </mxCell>
        <mxCell id="M9C141JOA7lJcj1hr1hh-21" value="" style="group;fillColor=none;strokeColor=#d6b656;movable=0;resizable=0;rotatable=0;deletable=0;editable=0;locked=1;connectable=0;" parent="M9C141JOA7lJcj1hr1hh-6" vertex="1" connectable="0">
          <mxGeometry x="20" width="120" height="120" as="geometry" />
        </mxCell>
        <mxCell id="M9C141JOA7lJcj1hr1hh-20" value="Login" style="rounded=1;whiteSpace=wrap;html=1;" parent="M9C141JOA7lJcj1hr1hh-21" vertex="1">
          <mxGeometry x="30" y="40" width="70" height="40" as="geometry" />
        </mxCell>
        <mxCell id="M9C141JOA7lJcj1hr1hh-31" value="Logueado" style="rhombus;whiteSpace=wrap;html=1;" parent="M9C141JOA7lJcj1hr1hh-6" vertex="1">
          <mxGeometry x="160" y="25" width="70" height="70" as="geometry" />
        </mxCell>
        <mxCell id="M9C141JOA7lJcj1hr1hh-32" value="" style="edgeStyle=segmentEdgeStyle;endArrow=classic;html=1;curved=0;rounded=0;endSize=8;startSize=8;exitX=0.5;exitY=1;exitDx=0;exitDy=0;entryX=0.5;entryY=1;entryDx=0;entryDy=0;" parent="M9C141JOA7lJcj1hr1hh-6" source="M9C141JOA7lJcj1hr1hh-31" target="M9C141JOA7lJcj1hr1hh-20" edge="1">
          <mxGeometry width="50" height="50" relative="1" as="geometry">
            <mxPoint x="370" y="90" as="sourcePoint" />
            <mxPoint x="420" y="40" as="targetPoint" />
            <Array as="points">
              <mxPoint x="195" y="110" />
              <mxPoint x="85" y="110" />
            </Array>
          </mxGeometry>
        </mxCell>
        <mxCell id="M9C141JOA7lJcj1hr1hh-36" value="" style="shape=step;perimeter=stepPerimeter;whiteSpace=wrap;html=1;fixedSize=1;fillColor=#fff2cc;strokeColor=#d6b656;" parent="M9C141JOA7lJcj1hr1hh-6" vertex="1">
          <mxGeometry x="450" width="120" height="120" as="geometry" />
        </mxCell>
        <mxCell id="M9C141JOA7lJcj1hr1hh-37" value="" style="shape=step;perimeter=stepPerimeter;whiteSpace=wrap;html=1;fixedSize=1;fillColor=#fff2cc;strokeColor=#d6b656;" parent="M9C141JOA7lJcj1hr1hh-6" vertex="1">
          <mxGeometry x="560" width="120" height="120" as="geometry" />
        </mxCell>
        <mxCell id="M9C141JOA7lJcj1hr1hh-53" value="" style="shape=step;perimeter=stepPerimeter;whiteSpace=wrap;html=1;fixedSize=1;fillColor=#fff2cc;strokeColor=#d6b656;" parent="M9C141JOA7lJcj1hr1hh-6" vertex="1">
          <mxGeometry x="670" width="120" height="120" as="geometry" />
        </mxCell>
        <mxCell id="M9C141JOA7lJcj1hr1hh-54" value="" style="shape=step;perimeter=stepPerimeter;whiteSpace=wrap;html=1;fixedSize=1;fillColor=#fff2cc;strokeColor=#d6b656;" parent="M9C141JOA7lJcj1hr1hh-6" vertex="1">
          <mxGeometry x="240" width="120" height="120" as="geometry" />
        </mxCell>
        <mxCell id="M9C141JOA7lJcj1hr1hh-121" style="edgeStyle=orthogonalEdgeStyle;rounded=0;orthogonalLoop=1;jettySize=auto;html=1;exitX=1;exitY=0.5;exitDx=0;exitDy=0;" parent="M9C141JOA7lJcj1hr1hh-6" source="M9C141JOA7lJcj1hr1hh-55" target="M9C141JOA7lJcj1hr1hh-64" edge="1">
          <mxGeometry relative="1" as="geometry" />
        </mxCell>
        <mxCell id="M9C141JOA7lJcj1hr1hh-55" value="Menú" style="rounded=1;whiteSpace=wrap;html=1;" parent="M9C141JOA7lJcj1hr1hh-6" vertex="1">
          <mxGeometry x="275" y="40" width="70" height="40" as="geometry" />
        </mxCell>
        <mxCell id="M9C141JOA7lJcj1hr1hh-122" style="edgeStyle=orthogonalEdgeStyle;rounded=0;orthogonalLoop=1;jettySize=auto;html=1;exitX=1;exitY=0.5;exitDx=0;exitDy=0;entryX=0;entryY=0.5;entryDx=0;entryDy=0;" parent="M9C141JOA7lJcj1hr1hh-6" source="M9C141JOA7lJcj1hr1hh-64" target="M9C141JOA7lJcj1hr1hh-65" edge="1">
          <mxGeometry relative="1" as="geometry" />
        </mxCell>
        <mxCell id="M9C141JOA7lJcj1hr1hh-64" value="Administrar&lt;br&gt;Sociosanit" style="rounded=1;whiteSpace=wrap;html=1;" parent="M9C141JOA7lJcj1hr1hh-6" vertex="1">
          <mxGeometry x="380" y="40" width="70" height="40" as="geometry" />
        </mxCell>
        <mxCell id="M9C141JOA7lJcj1hr1hh-123" style="edgeStyle=orthogonalEdgeStyle;rounded=0;orthogonalLoop=1;jettySize=auto;html=1;exitX=1;exitY=0.5;exitDx=0;exitDy=0;entryX=0;entryY=0.5;entryDx=0;entryDy=0;" parent="M9C141JOA7lJcj1hr1hh-6" source="M9C141JOA7lJcj1hr1hh-65" target="M9C141JOA7lJcj1hr1hh-66" edge="1">
          <mxGeometry relative="1" as="geometry" />
        </mxCell>
        <mxCell id="M9C141JOA7lJcj1hr1hh-65" value="Administrar&lt;br&gt;Usuario" style="rounded=1;whiteSpace=wrap;html=1;" parent="M9C141JOA7lJcj1hr1hh-6" vertex="1">
          <mxGeometry x="480" y="40" width="70" height="40" as="geometry" />
        </mxCell>
        <mxCell id="M9C141JOA7lJcj1hr1hh-124" style="edgeStyle=orthogonalEdgeStyle;rounded=0;orthogonalLoop=1;jettySize=auto;html=1;exitX=1;exitY=0.5;exitDx=0;exitDy=0;entryX=0;entryY=0.5;entryDx=0;entryDy=0;" parent="M9C141JOA7lJcj1hr1hh-6" source="M9C141JOA7lJcj1hr1hh-66" target="M9C141JOA7lJcj1hr1hh-67" edge="1">
          <mxGeometry relative="1" as="geometry" />
        </mxCell>
        <mxCell id="M9C141JOA7lJcj1hr1hh-66" value="Administrar&lt;br&gt;Familiar" style="rounded=1;whiteSpace=wrap;html=1;" parent="M9C141JOA7lJcj1hr1hh-6" vertex="1">
          <mxGeometry x="590" y="40" width="70" height="40" as="geometry" />
        </mxCell>
        <mxCell id="M9C141JOA7lJcj1hr1hh-84" value="" style="shape=step;perimeter=stepPerimeter;whiteSpace=wrap;html=1;fixedSize=1;fillColor=#fff2cc;strokeColor=#d6b656;" parent="M9C141JOA7lJcj1hr1hh-6" vertex="1">
          <mxGeometry x="780" width="120" height="120" as="geometry" />
        </mxCell>
        <mxCell id="M9C141JOA7lJcj1hr1hh-85" value="" style="shape=step;perimeter=stepPerimeter;whiteSpace=wrap;html=1;fixedSize=1;fillColor=#fff2cc;strokeColor=#d6b656;" parent="M9C141JOA7lJcj1hr1hh-6" vertex="1">
          <mxGeometry x="890" width="120" height="120" as="geometry" />
        </mxCell>
        <mxCell id="M9C141JOA7lJcj1hr1hh-86" value="" style="shape=step;perimeter=stepPerimeter;whiteSpace=wrap;html=1;fixedSize=1;fillColor=#fff2cc;strokeColor=#d6b656;" parent="M9C141JOA7lJcj1hr1hh-6" vertex="1">
          <mxGeometry x="1000" width="120" height="120" as="geometry" />
        </mxCell>
        <mxCell id="M9C141JOA7lJcj1hr1hh-87" value="" style="shape=step;perimeter=stepPerimeter;whiteSpace=wrap;html=1;fixedSize=1;fillColor=#fff2cc;strokeColor=#d6b656;" parent="M9C141JOA7lJcj1hr1hh-6" vertex="1">
          <mxGeometry x="1110" width="120" height="120" as="geometry" />
        </mxCell>
        <mxCell id="M9C141JOA7lJcj1hr1hh-125" style="edgeStyle=orthogonalEdgeStyle;rounded=0;orthogonalLoop=1;jettySize=auto;html=1;exitX=1;exitY=0.5;exitDx=0;exitDy=0;entryX=0;entryY=0.5;entryDx=0;entryDy=0;" parent="M9C141JOA7lJcj1hr1hh-6" source="M9C141JOA7lJcj1hr1hh-67" target="M9C141JOA7lJcj1hr1hh-88" edge="1">
          <mxGeometry relative="1" as="geometry" />
        </mxCell>
        <mxCell id="M9C141JOA7lJcj1hr1hh-67" value="Evento&lt;br&gt;Sociosanit" style="rounded=1;whiteSpace=wrap;html=1;" parent="M9C141JOA7lJcj1hr1hh-6" vertex="1">
          <mxGeometry x="700" y="20" width="70" height="80" as="geometry" />
        </mxCell>
        <mxCell id="M9C141JOA7lJcj1hr1hh-126" style="edgeStyle=orthogonalEdgeStyle;rounded=0;orthogonalLoop=1;jettySize=auto;html=1;exitX=1;exitY=0.5;exitDx=0;exitDy=0;entryX=0;entryY=0.5;entryDx=0;entryDy=0;" parent="M9C141JOA7lJcj1hr1hh-6" source="M9C141JOA7lJcj1hr1hh-88" target="M9C141JOA7lJcj1hr1hh-89" edge="1">
          <mxGeometry relative="1" as="geometry" />
        </mxCell>
        <mxCell id="M9C141JOA7lJcj1hr1hh-88" value="Evento&lt;br&gt;Usuario" style="rounded=1;whiteSpace=wrap;html=1;" parent="M9C141JOA7lJcj1hr1hh-6" vertex="1">
          <mxGeometry x="810" y="20" width="70" height="80" as="geometry" />
        </mxCell>
        <mxCell id="M9C141JOA7lJcj1hr1hh-127" style="edgeStyle=orthogonalEdgeStyle;rounded=0;orthogonalLoop=1;jettySize=auto;html=1;exitX=1;exitY=0.5;exitDx=0;exitDy=0;entryX=0;entryY=0.5;entryDx=0;entryDy=0;" parent="M9C141JOA7lJcj1hr1hh-6" source="M9C141JOA7lJcj1hr1hh-89" target="M9C141JOA7lJcj1hr1hh-100" edge="1">
          <mxGeometry relative="1" as="geometry" />
        </mxCell>
        <mxCell id="M9C141JOA7lJcj1hr1hh-89" value="Evento&lt;br&gt;Familiar" style="rounded=1;whiteSpace=wrap;html=1;" parent="M9C141JOA7lJcj1hr1hh-6" vertex="1">
          <mxGeometry x="920" y="20" width="70" height="80" as="geometry" />
        </mxCell>
        <mxCell id="M9C141JOA7lJcj1hr1hh-101" value="Gestión de&lt;br&gt;Reclamos" style="rounded=1;whiteSpace=wrap;html=1;" parent="M9C141JOA7lJcj1hr1hh-6" vertex="1">
          <mxGeometry x="1140" y="40" width="70" height="40" as="geometry" />
        </mxCell>
        <mxCell id="M9C141JOA7lJcj1hr1hh-128" style="edgeStyle=orthogonalEdgeStyle;rounded=0;orthogonalLoop=1;jettySize=auto;html=1;exitX=1;exitY=0.5;exitDx=0;exitDy=0;entryX=0;entryY=0.5;entryDx=0;entryDy=0;" parent="M9C141JOA7lJcj1hr1hh-6" source="M9C141JOA7lJcj1hr1hh-100" target="M9C141JOA7lJcj1hr1hh-101" edge="1">
          <mxGeometry relative="1" as="geometry" />
        </mxCell>
        <mxCell id="M9C141JOA7lJcj1hr1hh-100" value="Administrar&lt;br&gt;Incidencias" style="rounded=1;whiteSpace=wrap;html=1;" parent="M9C141JOA7lJcj1hr1hh-6" vertex="1">
          <mxGeometry x="1030" y="40" width="70" height="40" as="geometry" />
        </mxCell>
        <mxCell id="M9C141JOA7lJcj1hr1hh-120" style="edgeStyle=orthogonalEdgeStyle;rounded=0;orthogonalLoop=1;jettySize=auto;html=1;exitX=1;exitY=0.5;exitDx=0;exitDy=0;entryX=0;entryY=0.5;entryDx=0;entryDy=0;" parent="M9C141JOA7lJcj1hr1hh-6" source="M9C141JOA7lJcj1hr1hh-31" target="M9C141JOA7lJcj1hr1hh-55" edge="1">
          <mxGeometry relative="1" as="geometry" />
        </mxCell>
        <mxCell id="8noJ80j_U4iAbVky4mDm-7" value="" style="edgeStyle=orthogonalEdgeStyle;rounded=0;orthogonalLoop=1;jettySize=auto;html=1;" parent="M9C141JOA7lJcj1hr1hh-6" source="M9C141JOA7lJcj1hr1hh-36" target="8noJ80j_U4iAbVky4mDm-6" edge="1">
          <mxGeometry relative="1" as="geometry" />
        </mxCell>
        <mxCell id="M9C141JOA7lJcj1hr1hh-7" value="Sociosanitario" style="swimlane;startSize=20;horizontal=0;html=1;fillColor=#d5e8d4;strokeColor=default;swimlaneFillColor=none;fillStyle=auto;" parent="M9C141JOA7lJcj1hr1hh-5" vertex="1">
          <mxGeometry x="20" y="120" width="1230" height="120" as="geometry">
            <mxRectangle x="20" y="120" width="1340" height="30" as="alternateBounds" />
          </mxGeometry>
        </mxCell>
        <mxCell id="8noJ80j_U4iAbVky4mDm-5" value="" style="shape=step;perimeter=stepPerimeter;whiteSpace=wrap;html=1;fixedSize=1;fillColor=#d5e8d4;strokeColor=#82b366;" parent="M9C141JOA7lJcj1hr1hh-7" vertex="1">
          <mxGeometry x="20" width="120" height="120" as="geometry" />
        </mxCell>
        <mxCell id="M9C141JOA7lJcj1hr1hh-22" value="" style="group;movable=0;resizable=0;rotatable=0;deletable=0;editable=0;locked=1;connectable=0;" parent="M9C141JOA7lJcj1hr1hh-7" vertex="1" connectable="0">
          <mxGeometry x="20" width="120" height="120" as="geometry" />
        </mxCell>
        <mxCell id="M9C141JOA7lJcj1hr1hh-24" value="Login" style="rounded=1;whiteSpace=wrap;html=1;" parent="M9C141JOA7lJcj1hr1hh-22" vertex="1">
          <mxGeometry x="30" y="40" width="70" height="40" as="geometry" />
        </mxCell>
        <mxCell id="M9C141JOA7lJcj1hr1hh-16" value="" style="shape=step;perimeter=stepPerimeter;whiteSpace=wrap;html=1;fixedSize=1;fillColor=#d5e8d4;strokeColor=#82b366;" parent="M9C141JOA7lJcj1hr1hh-7" vertex="1">
          <mxGeometry x="130" width="120" height="120" as="geometry" />
        </mxCell>
        <mxCell id="M9C141JOA7lJcj1hr1hh-129" style="edgeStyle=orthogonalEdgeStyle;rounded=0;orthogonalLoop=1;jettySize=auto;html=1;exitX=1;exitY=0.5;exitDx=0;exitDy=0;entryX=0;entryY=0.5;entryDx=0;entryDy=0;" parent="M9C141JOA7lJcj1hr1hh-7" source="M9C141JOA7lJcj1hr1hh-33" target="M9C141JOA7lJcj1hr1hh-56" edge="1">
          <mxGeometry relative="1" as="geometry" />
        </mxCell>
        <mxCell id="M9C141JOA7lJcj1hr1hh-33" value="Logueado" style="rhombus;whiteSpace=wrap;html=1;" parent="M9C141JOA7lJcj1hr1hh-7" vertex="1">
          <mxGeometry x="155" y="25" width="70" height="70" as="geometry" />
        </mxCell>
        <mxCell id="M9C141JOA7lJcj1hr1hh-42" value="" style="shape=step;perimeter=stepPerimeter;whiteSpace=wrap;html=1;fixedSize=1;fillColor=#d5e8d4;strokeColor=#82b366;" parent="M9C141JOA7lJcj1hr1hh-7" vertex="1">
          <mxGeometry x="670" width="120" height="120" as="geometry" />
        </mxCell>
        <mxCell id="M9C141JOA7lJcj1hr1hh-41" value="" style="shape=step;perimeter=stepPerimeter;whiteSpace=wrap;html=1;fixedSize=1;fillColor=#d5e8d4;strokeColor=#82b366;" parent="M9C141JOA7lJcj1hr1hh-7" vertex="1">
          <mxGeometry x="560" width="120" height="120" as="geometry" />
        </mxCell>
        <mxCell id="M9C141JOA7lJcj1hr1hh-40" value="" style="shape=step;perimeter=stepPerimeter;whiteSpace=wrap;html=1;fixedSize=1;fillColor=#d5e8d4;strokeColor=#82b366;" parent="M9C141JOA7lJcj1hr1hh-7" vertex="1">
          <mxGeometry x="450" width="120" height="120" as="geometry" />
        </mxCell>
        <mxCell id="M9C141JOA7lJcj1hr1hh-39" value="" style="shape=step;perimeter=stepPerimeter;whiteSpace=wrap;html=1;fixedSize=1;fillColor=#d5e8d4;strokeColor=#82b366;" parent="M9C141JOA7lJcj1hr1hh-7" vertex="1">
          <mxGeometry x="345" width="120" height="120" as="geometry" />
        </mxCell>
        <mxCell id="M9C141JOA7lJcj1hr1hh-38" value="" style="shape=step;perimeter=stepPerimeter;whiteSpace=wrap;html=1;fixedSize=1;fillColor=#d5e8d4;strokeColor=#82b366;" parent="M9C141JOA7lJcj1hr1hh-7" vertex="1">
          <mxGeometry x="240" width="120" height="120" as="geometry" />
        </mxCell>
        <mxCell id="M9C141JOA7lJcj1hr1hh-56" value="Menú" style="rounded=1;whiteSpace=wrap;html=1;" parent="M9C141JOA7lJcj1hr1hh-7" vertex="1">
          <mxGeometry x="265" y="40" width="70" height="40" as="geometry" />
        </mxCell>
        <mxCell id="M9C141JOA7lJcj1hr1hh-92" value="" style="shape=step;perimeter=stepPerimeter;whiteSpace=wrap;html=1;fixedSize=1;fillColor=#d5e8d4;strokeColor=#82b366;" parent="M9C141JOA7lJcj1hr1hh-7" vertex="1">
          <mxGeometry x="780" width="120" height="120" as="geometry" />
        </mxCell>
        <mxCell id="M9C141JOA7lJcj1hr1hh-91" value="Evento&lt;br&gt;Usuario" style="rounded=1;whiteSpace=wrap;html=1;" parent="M9C141JOA7lJcj1hr1hh-7" vertex="1">
          <mxGeometry x="810" y="20" width="70" height="80" as="geometry" />
        </mxCell>
        <mxCell id="M9C141JOA7lJcj1hr1hh-97" value="" style="shape=step;perimeter=stepPerimeter;whiteSpace=wrap;html=1;fixedSize=1;fillColor=#d5e8d4;strokeColor=#82b366;" parent="M9C141JOA7lJcj1hr1hh-7" vertex="1">
          <mxGeometry x="890" width="120" height="120" as="geometry" />
        </mxCell>
        <mxCell id="M9C141JOA7lJcj1hr1hh-96" value="Evento&lt;br&gt;Familiar" style="rounded=1;whiteSpace=wrap;html=1;" parent="M9C141JOA7lJcj1hr1hh-7" vertex="1">
          <mxGeometry x="920" y="20" width="70" height="80" as="geometry" />
        </mxCell>
        <mxCell id="M9C141JOA7lJcj1hr1hh-102" value="" style="shape=step;perimeter=stepPerimeter;whiteSpace=wrap;html=1;fixedSize=1;fillColor=#d5e8d4;strokeColor=#82b366;" parent="M9C141JOA7lJcj1hr1hh-7" vertex="1">
          <mxGeometry x="1000" width="120" height="120" as="geometry" />
        </mxCell>
        <mxCell id="M9C141JOA7lJcj1hr1hh-105" value="Abrir&lt;br&gt;Incidencias" style="rounded=1;whiteSpace=wrap;html=1;" parent="M9C141JOA7lJcj1hr1hh-7" vertex="1">
          <mxGeometry x="1030" y="40" width="70" height="40" as="geometry" />
        </mxCell>
        <mxCell id="M9C141JOA7lJcj1hr1hh-108" value="" style="shape=step;perimeter=stepPerimeter;whiteSpace=wrap;html=1;fixedSize=1;fillColor=#d5e8d4;strokeColor=#82b366;" parent="M9C141JOA7lJcj1hr1hh-7" vertex="1">
          <mxGeometry x="1110" width="120" height="120" as="geometry" />
        </mxCell>
        <mxCell id="M9C141JOA7lJcj1hr1hh-111" value="Poner&lt;br&gt;Reclamos" style="rounded=1;whiteSpace=wrap;html=1;" parent="M9C141JOA7lJcj1hr1hh-7" vertex="1">
          <mxGeometry x="1140" y="40" width="70" height="40" as="geometry" />
        </mxCell>
        <mxCell id="M9C141JOA7lJcj1hr1hh-130" style="edgeStyle=orthogonalEdgeStyle;rounded=0;orthogonalLoop=1;jettySize=auto;html=1;exitX=1;exitY=0.5;exitDx=0;exitDy=0;entryX=0;entryY=0.5;entryDx=0;entryDy=0;" parent="M9C141JOA7lJcj1hr1hh-7" source="M9C141JOA7lJcj1hr1hh-56" target="M9C141JOA7lJcj1hr1hh-91" edge="1">
          <mxGeometry relative="1" as="geometry" />
        </mxCell>
        <mxCell id="M9C141JOA7lJcj1hr1hh-132" style="edgeStyle=orthogonalEdgeStyle;rounded=0;orthogonalLoop=1;jettySize=auto;html=1;exitX=1;exitY=0.5;exitDx=0;exitDy=0;entryX=0;entryY=0.5;entryDx=0;entryDy=0;" parent="M9C141JOA7lJcj1hr1hh-7" source="M9C141JOA7lJcj1hr1hh-91" target="M9C141JOA7lJcj1hr1hh-96" edge="1">
          <mxGeometry relative="1" as="geometry" />
        </mxCell>
        <mxCell id="M9C141JOA7lJcj1hr1hh-133" style="edgeStyle=orthogonalEdgeStyle;rounded=0;orthogonalLoop=1;jettySize=auto;html=1;exitX=1;exitY=0.5;exitDx=0;exitDy=0;entryX=0;entryY=0.5;entryDx=0;entryDy=0;" parent="M9C141JOA7lJcj1hr1hh-7" source="M9C141JOA7lJcj1hr1hh-96" target="M9C141JOA7lJcj1hr1hh-105" edge="1">
          <mxGeometry relative="1" as="geometry" />
        </mxCell>
        <mxCell id="M9C141JOA7lJcj1hr1hh-134" style="edgeStyle=orthogonalEdgeStyle;rounded=0;orthogonalLoop=1;jettySize=auto;html=1;exitX=1;exitY=0.5;exitDx=0;exitDy=0;entryX=0;entryY=0.5;entryDx=0;entryDy=0;" parent="M9C141JOA7lJcj1hr1hh-7" source="M9C141JOA7lJcj1hr1hh-105" target="M9C141JOA7lJcj1hr1hh-111" edge="1">
          <mxGeometry relative="1" as="geometry" />
        </mxCell>
        <mxCell id="M9C141JOA7lJcj1hr1hh-35" value="" style="edgeStyle=segmentEdgeStyle;endArrow=classic;html=1;curved=0;rounded=0;endSize=8;startSize=8;exitX=0.5;exitY=1;exitDx=0;exitDy=0;entryX=0.5;entryY=1;entryDx=0;entryDy=0;" parent="M9C141JOA7lJcj1hr1hh-7" source="M9C141JOA7lJcj1hr1hh-33" target="M9C141JOA7lJcj1hr1hh-24" edge="1">
          <mxGeometry width="50" height="50" relative="1" as="geometry">
            <mxPoint x="370" y="-30" as="sourcePoint" />
            <mxPoint x="420" y="-80" as="targetPoint" />
            <Array as="points">
              <mxPoint x="190" y="110" />
              <mxPoint x="85" y="110" />
            </Array>
          </mxGeometry>
        </mxCell>
        <mxCell id="M9C141JOA7lJcj1hr1hh-8" value="Usuario" style="swimlane;startSize=20;horizontal=0;html=1;fillColor=#dae8fc;strokeColor=#6c8ebf;" parent="M9C141JOA7lJcj1hr1hh-5" vertex="1">
          <mxGeometry x="20" y="240" width="1230" height="120" as="geometry" />
        </mxCell>
        <mxCell id="M9C141JOA7lJcj1hr1hh-17" value="" style="shape=step;perimeter=stepPerimeter;whiteSpace=wrap;html=1;fixedSize=1;fillColor=#dae8fc;strokeColor=#6c8ebf;" parent="M9C141JOA7lJcj1hr1hh-8" vertex="1">
          <mxGeometry x="130" width="120" height="120" as="geometry" />
        </mxCell>
        <mxCell id="M9C141JOA7lJcj1hr1hh-47" value="" style="shape=step;perimeter=stepPerimeter;whiteSpace=wrap;html=1;fixedSize=1;fillColor=#dae8fc;strokeColor=#6c8ebf;" parent="M9C141JOA7lJcj1hr1hh-8" vertex="1">
          <mxGeometry x="240" width="120" height="120" as="geometry" />
        </mxCell>
        <mxCell id="M9C141JOA7lJcj1hr1hh-46" value="" style="shape=step;perimeter=stepPerimeter;whiteSpace=wrap;html=1;fixedSize=1;fillColor=#dae8fc;strokeColor=#6c8ebf;" parent="M9C141JOA7lJcj1hr1hh-8" vertex="1">
          <mxGeometry x="345" width="120" height="120" as="geometry" />
        </mxCell>
        <mxCell id="M9C141JOA7lJcj1hr1hh-45" value="" style="shape=step;perimeter=stepPerimeter;whiteSpace=wrap;html=1;fixedSize=1;fillColor=#dae8fc;strokeColor=#6c8ebf;" parent="M9C141JOA7lJcj1hr1hh-8" vertex="1">
          <mxGeometry x="450" width="120" height="120" as="geometry" />
        </mxCell>
        <mxCell id="M9C141JOA7lJcj1hr1hh-44" value="" style="shape=step;perimeter=stepPerimeter;whiteSpace=wrap;html=1;fixedSize=1;fillColor=#dae8fc;strokeColor=#6c8ebf;" parent="M9C141JOA7lJcj1hr1hh-8" vertex="1">
          <mxGeometry x="560" width="120" height="120" as="geometry" />
        </mxCell>
        <mxCell id="M9C141JOA7lJcj1hr1hh-43" value="" style="shape=step;perimeter=stepPerimeter;whiteSpace=wrap;html=1;fixedSize=1;fillColor=#dae8fc;strokeColor=#6c8ebf;" parent="M9C141JOA7lJcj1hr1hh-8" vertex="1">
          <mxGeometry x="670" width="120" height="120" as="geometry" />
        </mxCell>
        <mxCell id="M9C141JOA7lJcj1hr1hh-26" value="" style="shape=step;perimeter=stepPerimeter;whiteSpace=wrap;html=1;fixedSize=1;fillColor=#dae8fc;strokeColor=#6c8ebf;" parent="M9C141JOA7lJcj1hr1hh-8" vertex="1">
          <mxGeometry x="20" width="120" height="120" as="geometry" />
        </mxCell>
        <mxCell id="M9C141JOA7lJcj1hr1hh-27" value="Login" style="rounded=1;whiteSpace=wrap;html=1;" parent="M9C141JOA7lJcj1hr1hh-8" vertex="1">
          <mxGeometry x="50" y="40" width="70" height="40" as="geometry" />
        </mxCell>
        <mxCell id="M9C141JOA7lJcj1hr1hh-57" value="Menú" style="rounded=1;whiteSpace=wrap;html=1;" parent="M9C141JOA7lJcj1hr1hh-8" vertex="1">
          <mxGeometry x="265" y="40" width="70" height="40" as="geometry" />
        </mxCell>
        <mxCell id="M9C141JOA7lJcj1hr1hh-63" style="edgeStyle=orthogonalEdgeStyle;rounded=0;orthogonalLoop=1;jettySize=auto;html=1;exitX=0.5;exitY=1;exitDx=0;exitDy=0;entryX=0.5;entryY=1;entryDx=0;entryDy=0;" parent="M9C141JOA7lJcj1hr1hh-8" source="M9C141JOA7lJcj1hr1hh-60" target="M9C141JOA7lJcj1hr1hh-27" edge="1">
          <mxGeometry relative="1" as="geometry">
            <Array as="points">
              <mxPoint x="190" y="110" />
              <mxPoint x="85" y="110" />
            </Array>
          </mxGeometry>
        </mxCell>
        <mxCell id="M9C141JOA7lJcj1hr1hh-138" style="edgeStyle=orthogonalEdgeStyle;rounded=0;orthogonalLoop=1;jettySize=auto;html=1;exitX=1;exitY=0.5;exitDx=0;exitDy=0;entryX=0;entryY=0.5;entryDx=0;entryDy=0;" parent="M9C141JOA7lJcj1hr1hh-8" source="M9C141JOA7lJcj1hr1hh-60" target="M9C141JOA7lJcj1hr1hh-57" edge="1">
          <mxGeometry relative="1" as="geometry" />
        </mxCell>
        <mxCell id="M9C141JOA7lJcj1hr1hh-60" value="Logueado" style="rhombus;whiteSpace=wrap;html=1;" parent="M9C141JOA7lJcj1hr1hh-8" vertex="1">
          <mxGeometry x="155" y="25" width="70" height="70" as="geometry" />
        </mxCell>
        <mxCell id="M9C141JOA7lJcj1hr1hh-93" value="" style="shape=step;perimeter=stepPerimeter;whiteSpace=wrap;html=1;fixedSize=1;fillColor=#dae8fc;strokeColor=#6c8ebf;" parent="M9C141JOA7lJcj1hr1hh-8" vertex="1">
          <mxGeometry x="780" width="120" height="120" as="geometry" />
        </mxCell>
        <mxCell id="M9C141JOA7lJcj1hr1hh-98" value="" style="shape=step;perimeter=stepPerimeter;whiteSpace=wrap;html=1;fixedSize=1;fillColor=#dae8fc;strokeColor=#6c8ebf;" parent="M9C141JOA7lJcj1hr1hh-8" vertex="1">
          <mxGeometry x="890" width="120" height="120" as="geometry" />
        </mxCell>
        <mxCell id="M9C141JOA7lJcj1hr1hh-103" value="" style="shape=step;perimeter=stepPerimeter;whiteSpace=wrap;html=1;fixedSize=1;fillColor=#dae8fc;strokeColor=#6c8ebf;" parent="M9C141JOA7lJcj1hr1hh-8" vertex="1">
          <mxGeometry x="1000" width="120" height="120" as="geometry" />
        </mxCell>
        <mxCell id="M9C141JOA7lJcj1hr1hh-106" value="Abrir&lt;br&gt;Incidencias" style="rounded=1;whiteSpace=wrap;html=1;" parent="M9C141JOA7lJcj1hr1hh-8" vertex="1">
          <mxGeometry x="1030" y="40" width="70" height="40" as="geometry" />
        </mxCell>
        <mxCell id="M9C141JOA7lJcj1hr1hh-109" value="" style="shape=step;perimeter=stepPerimeter;whiteSpace=wrap;html=1;fixedSize=1;fillColor=#dae8fc;strokeColor=#6c8ebf;" parent="M9C141JOA7lJcj1hr1hh-8" vertex="1">
          <mxGeometry x="1110" width="120" height="120" as="geometry" />
        </mxCell>
        <mxCell id="M9C141JOA7lJcj1hr1hh-113" value="Poner&lt;br&gt;Reclamos" style="rounded=1;whiteSpace=wrap;html=1;" parent="M9C141JOA7lJcj1hr1hh-8" vertex="1">
          <mxGeometry x="1140" y="40" width="70" height="40" as="geometry" />
        </mxCell>
        <mxCell id="M9C141JOA7lJcj1hr1hh-136" style="edgeStyle=orthogonalEdgeStyle;rounded=0;orthogonalLoop=1;jettySize=auto;html=1;exitX=0.5;exitY=1;exitDx=0;exitDy=0;" parent="M9C141JOA7lJcj1hr1hh-8" source="M9C141JOA7lJcj1hr1hh-57" target="M9C141JOA7lJcj1hr1hh-57" edge="1">
          <mxGeometry relative="1" as="geometry" />
        </mxCell>
        <mxCell id="M9C141JOA7lJcj1hr1hh-139" style="edgeStyle=orthogonalEdgeStyle;rounded=0;orthogonalLoop=1;jettySize=auto;html=1;exitX=1;exitY=0.5;exitDx=0;exitDy=0;entryX=0;entryY=0.5;entryDx=0;entryDy=0;" parent="M9C141JOA7lJcj1hr1hh-8" source="M9C141JOA7lJcj1hr1hh-57" target="M9C141JOA7lJcj1hr1hh-106" edge="1">
          <mxGeometry relative="1" as="geometry" />
        </mxCell>
        <mxCell id="M9C141JOA7lJcj1hr1hh-141" style="edgeStyle=orthogonalEdgeStyle;rounded=0;orthogonalLoop=1;jettySize=auto;html=1;exitX=1;exitY=0.5;exitDx=0;exitDy=0;entryX=0;entryY=0.5;entryDx=0;entryDy=0;" parent="M9C141JOA7lJcj1hr1hh-8" source="M9C141JOA7lJcj1hr1hh-106" target="M9C141JOA7lJcj1hr1hh-113" edge="1">
          <mxGeometry relative="1" as="geometry" />
        </mxCell>
        <mxCell id="M9C141JOA7lJcj1hr1hh-9" value="Familiar" style="swimlane;startSize=20;horizontal=0;html=1;fillColor=#f8cecc;strokeColor=#b85450;" parent="M9C141JOA7lJcj1hr1hh-5" vertex="1">
          <mxGeometry x="20" y="360" width="1230" height="120" as="geometry" />
        </mxCell>
        <mxCell id="M9C141JOA7lJcj1hr1hh-18" value="" style="shape=step;perimeter=stepPerimeter;whiteSpace=wrap;html=1;fixedSize=1;fillColor=#f8cecc;strokeColor=#b85450;" parent="M9C141JOA7lJcj1hr1hh-9" vertex="1">
          <mxGeometry x="130" width="120" height="120" as="geometry" />
        </mxCell>
        <mxCell id="M9C141JOA7lJcj1hr1hh-52" value="" style="shape=step;perimeter=stepPerimeter;whiteSpace=wrap;html=1;fixedSize=1;fillColor=#f8cecc;strokeColor=#b85450;" parent="M9C141JOA7lJcj1hr1hh-9" vertex="1">
          <mxGeometry x="240" width="120" height="120" as="geometry" />
        </mxCell>
        <mxCell id="M9C141JOA7lJcj1hr1hh-51" value="" style="shape=step;perimeter=stepPerimeter;whiteSpace=wrap;html=1;fixedSize=1;fillColor=#f8cecc;strokeColor=#b85450;" parent="M9C141JOA7lJcj1hr1hh-9" vertex="1">
          <mxGeometry x="345" width="120" height="120" as="geometry" />
        </mxCell>
        <mxCell id="M9C141JOA7lJcj1hr1hh-50" value="" style="shape=step;perimeter=stepPerimeter;whiteSpace=wrap;html=1;fixedSize=1;fillColor=#f8cecc;strokeColor=#b85450;" parent="M9C141JOA7lJcj1hr1hh-9" vertex="1">
          <mxGeometry x="450" width="120" height="120" as="geometry" />
        </mxCell>
        <mxCell id="M9C141JOA7lJcj1hr1hh-49" value="" style="shape=step;perimeter=stepPerimeter;whiteSpace=wrap;html=1;fixedSize=1;fillColor=#f8cecc;strokeColor=#b85450;" parent="M9C141JOA7lJcj1hr1hh-9" vertex="1">
          <mxGeometry x="560" width="120" height="120" as="geometry" />
        </mxCell>
        <mxCell id="M9C141JOA7lJcj1hr1hh-48" value="" style="shape=step;perimeter=stepPerimeter;whiteSpace=wrap;html=1;fixedSize=1;fillColor=#f8cecc;strokeColor=#b85450;" parent="M9C141JOA7lJcj1hr1hh-9" vertex="1">
          <mxGeometry x="670" width="120" height="120" as="geometry" />
        </mxCell>
        <mxCell id="M9C141JOA7lJcj1hr1hh-58" value="Menú" style="rounded=1;whiteSpace=wrap;html=1;" parent="M9C141JOA7lJcj1hr1hh-9" vertex="1">
          <mxGeometry x="265" y="40" width="70" height="40" as="geometry" />
        </mxCell>
        <mxCell id="M9C141JOA7lJcj1hr1hh-142" style="edgeStyle=orthogonalEdgeStyle;rounded=0;orthogonalLoop=1;jettySize=auto;html=1;exitX=1;exitY=0.5;exitDx=0;exitDy=0;entryX=0;entryY=0.5;entryDx=0;entryDy=0;" parent="M9C141JOA7lJcj1hr1hh-9" source="M9C141JOA7lJcj1hr1hh-61" target="M9C141JOA7lJcj1hr1hh-58" edge="1">
          <mxGeometry relative="1" as="geometry" />
        </mxCell>
        <mxCell id="M9C141JOA7lJcj1hr1hh-61" value="Logueado" style="rhombus;whiteSpace=wrap;html=1;" parent="M9C141JOA7lJcj1hr1hh-9" vertex="1">
          <mxGeometry x="155" y="25" width="70" height="70" as="geometry" />
        </mxCell>
        <mxCell id="M9C141JOA7lJcj1hr1hh-94" value="" style="shape=step;perimeter=stepPerimeter;whiteSpace=wrap;html=1;fixedSize=1;fillColor=#f8cecc;strokeColor=#b85450;" parent="M9C141JOA7lJcj1hr1hh-9" vertex="1">
          <mxGeometry x="780" width="120" height="120" as="geometry" />
        </mxCell>
        <mxCell id="M9C141JOA7lJcj1hr1hh-99" value="" style="shape=step;perimeter=stepPerimeter;whiteSpace=wrap;html=1;fixedSize=1;fillColor=#f8cecc;strokeColor=#b85450;" parent="M9C141JOA7lJcj1hr1hh-9" vertex="1">
          <mxGeometry x="890" width="120" height="120" as="geometry" />
        </mxCell>
        <mxCell id="M9C141JOA7lJcj1hr1hh-104" value="" style="shape=step;perimeter=stepPerimeter;whiteSpace=wrap;html=1;fixedSize=1;fillColor=#f8cecc;strokeColor=#b85450;" parent="M9C141JOA7lJcj1hr1hh-9" vertex="1">
          <mxGeometry x="1000" width="120" height="120" as="geometry" />
        </mxCell>
        <mxCell id="M9C141JOA7lJcj1hr1hh-107" value="Abrir&lt;br&gt;Incidencias" style="rounded=1;whiteSpace=wrap;html=1;" parent="M9C141JOA7lJcj1hr1hh-9" vertex="1">
          <mxGeometry x="1025" y="40" width="70" height="40" as="geometry" />
        </mxCell>
        <mxCell id="M9C141JOA7lJcj1hr1hh-110" value="" style="shape=step;perimeter=stepPerimeter;whiteSpace=wrap;html=1;fixedSize=1;fillColor=#f8cecc;strokeColor=#b85450;" parent="M9C141JOA7lJcj1hr1hh-9" vertex="1">
          <mxGeometry x="1110" width="120" height="120" as="geometry" />
        </mxCell>
        <mxCell id="M9C141JOA7lJcj1hr1hh-114" value="Poner&lt;br&gt;Reclamos" style="rounded=1;whiteSpace=wrap;html=1;" parent="M9C141JOA7lJcj1hr1hh-9" vertex="1">
          <mxGeometry x="1140" y="40" width="70" height="40" as="geometry" />
        </mxCell>
        <mxCell id="M9C141JOA7lJcj1hr1hh-143" style="edgeStyle=orthogonalEdgeStyle;rounded=0;orthogonalLoop=1;jettySize=auto;html=1;exitX=1;exitY=0.5;exitDx=0;exitDy=0;entryX=0;entryY=0.5;entryDx=0;entryDy=0;" parent="M9C141JOA7lJcj1hr1hh-9" source="M9C141JOA7lJcj1hr1hh-58" target="M9C141JOA7lJcj1hr1hh-107" edge="1">
          <mxGeometry relative="1" as="geometry">
            <mxPoint x="807" y="60" as="targetPoint" />
          </mxGeometry>
        </mxCell>
        <mxCell id="M9C141JOA7lJcj1hr1hh-146" style="edgeStyle=orthogonalEdgeStyle;rounded=0;orthogonalLoop=1;jettySize=auto;html=1;exitX=1;exitY=0.5;exitDx=0;exitDy=0;entryX=0;entryY=0.5;entryDx=0;entryDy=0;" parent="M9C141JOA7lJcj1hr1hh-9" source="M9C141JOA7lJcj1hr1hh-107" target="M9C141JOA7lJcj1hr1hh-114" edge="1">
          <mxGeometry relative="1" as="geometry" />
        </mxCell>
        <mxCell id="M9C141JOA7lJcj1hr1hh-29" value="" style="shape=step;perimeter=stepPerimeter;whiteSpace=wrap;html=1;fixedSize=1;movable=1;resizable=1;rotatable=1;deletable=1;editable=1;locked=0;connectable=1;fillColor=#f8cecc;strokeColor=#b85450;" parent="M9C141JOA7lJcj1hr1hh-9" vertex="1">
          <mxGeometry x="20" width="120" height="120" as="geometry" />
        </mxCell>
        <mxCell id="M9C141JOA7lJcj1hr1hh-30" value="Login" style="rounded=1;whiteSpace=wrap;html=1;" parent="M9C141JOA7lJcj1hr1hh-9" vertex="1">
          <mxGeometry x="50" y="40" width="70" height="40" as="geometry" />
        </mxCell>
        <mxCell id="M9C141JOA7lJcj1hr1hh-62" style="edgeStyle=orthogonalEdgeStyle;rounded=0;orthogonalLoop=1;jettySize=auto;html=1;exitX=0.5;exitY=1;exitDx=0;exitDy=0;entryX=0.5;entryY=1;entryDx=0;entryDy=0;movable=1;resizable=1;rotatable=1;deletable=1;editable=1;locked=0;connectable=1;" parent="M9C141JOA7lJcj1hr1hh-9" source="M9C141JOA7lJcj1hr1hh-61" target="M9C141JOA7lJcj1hr1hh-30" edge="1">
          <mxGeometry relative="1" as="geometry">
            <Array as="points">
              <mxPoint x="190" y="110" />
              <mxPoint x="85" y="110" />
            </Array>
          </mxGeometry>
        </mxCell>
      </root>
    </mxGraphModel>
  </diagram>
</mxfile>
